<svg width="11" height="8" viewBox="0 0 11 8" fill="none" xmlns="http://www.w3.org/2000/svg">
<g id="Left 1">
<path id="Vector" d="M0.459648 4.84148C0.204903 4.84148 -0.00160885 4.63497 -0.00160885 4.38022C-0.00160885 4.12548 0.204903 3.91897 0.459648 3.91897V4.84148ZM10.2998 3.91897C10.5545 3.91897 10.7611 4.12548 10.7611 4.38022C10.7611 4.63497 10.5545 4.84148 10.2998 4.84148V3.91897ZM8.16447 7.78288C7.98353 7.96221 7.69148 7.96091 7.51216 7.77997C7.33283 7.59904 7.33413 7.30699 7.51507 7.12766L8.16447 7.78288ZM8.92401 6.38066L8.59931 6.05305H8.59931L8.92401 6.38066ZM8.92401 2.37979L9.24871 2.05218H9.24871L8.92401 2.37979ZM7.51507 1.63279C7.33413 1.45346 7.33283 1.16141 7.51215 0.980476C7.69148 0.799542 7.98353 0.798239 8.16446 0.977566L7.51507 1.63279ZM10.2876 4.57293L10.7451 4.63125L10.7451 4.63125L10.2876 4.57293ZM10.2876 4.18752L10.7451 4.1292L10.7451 4.1292L10.2876 4.18752ZM0.459648 4.38022V3.91897L10.2998 3.91897V4.38022V4.84148H0.459648V4.38022ZM7.83977 7.45527L7.51507 7.12766L8.59931 6.05305L8.92401 6.38066L9.24871 6.70827L8.16447 7.78288L7.83977 7.45527ZM8.92401 2.37979L8.59931 2.7074L7.51507 1.63279L7.83977 1.30518L8.16446 0.977566L9.24871 2.05218L8.92401 2.37979ZM8.92401 6.38066L8.59931 6.05305C9.03934 5.61693 9.34119 5.31678 9.54544 5.06245C9.74384 4.81541 9.8119 4.65672 9.83002 4.51461L10.2876 4.57293L10.7451 4.63125C10.6967 5.01139 10.5153 5.32809 10.2647 5.6401C10.02 5.94483 9.67334 6.28742 9.24871 6.70827L8.92401 6.38066ZM8.92401 2.37979L9.24871 2.05218C9.67334 2.47303 10.02 2.81562 10.2647 3.12035C10.5153 3.43236 10.6967 3.74906 10.7451 4.1292L10.2876 4.18752L9.83002 4.24584C9.8119 4.10373 9.74384 3.94504 9.54544 3.698C9.34119 3.44367 9.03934 3.14352 8.59931 2.7074L8.92401 2.37979ZM10.2876 4.57293L9.83002 4.51461C9.84139 4.42537 9.84139 4.33508 9.83002 4.24584L10.2876 4.18752L10.7451 4.1292C10.7664 4.29588 10.7664 4.46456 10.7451 4.63125L10.2876 4.57293Z" fill="#312840"/>
</g>
</svg>
