<svg width="17" height="17" viewBox="0 0 17 17" fill="none" xmlns="http://www.w3.org/2000/svg">
<g id="Social Icons" clip-path="url(#clip0_1_384)">
<path id="Vector" d="M8.47423 0C3.79408 0 0 3.79408 0 8.47423C0 12.4483 2.73616 15.7831 6.42719 16.699V11.064H4.67981V8.47423H6.42719V7.35834C6.42719 4.47405 7.73256 3.13716 10.5643 3.13716C11.1012 3.13716 12.0276 3.24258 12.4066 3.34766V5.69502C12.2066 5.674 11.8592 5.6635 11.4277 5.6635C10.0382 5.6635 9.5013 6.18991 9.5013 7.55833V8.47423H12.2693L11.7938 11.064H9.5013V16.8864C13.6974 16.3797 16.9488 12.8069 16.9488 8.47423C16.9485 3.79408 13.1544 0 8.47423 0Z" fill="#312840"/>
</g>
<defs>
<clipPath id="clip0_1_384">
<rect width="16.9485" height="16.9485" fill="white"/>
</clipPath>
</defs>
</svg>
