<svg width="17" height="17" viewBox="0 0 17 17" fill="none" xmlns="http://www.w3.org/2000/svg">
<g id="Vector">
<path id="Vector_2" d="M8.51514 6.93359V10.2154H13.0758C12.8755 11.2709 12.2746 12.1645 11.3732 12.7654L14.1235 14.8994C15.7259 13.4203 16.6503 11.2478 16.6503 8.66704C16.6503 8.06615 16.5964 7.48831 16.4963 6.93369L8.51514 6.93359Z" fill="#312840"/>
<path id="Vector_3" d="M3.76593 10.0869L3.14564 10.5617L0.950012 12.272C2.3444 15.0376 5.20232 16.9482 8.51494 16.9482C10.8029 16.9482 12.7212 16.1932 14.1233 14.899L11.373 12.765C10.6181 13.2735 9.65507 13.5817 8.51494 13.5817C6.31166 13.5817 4.43968 12.0948 3.7694 10.0918L3.76593 10.0869Z" fill="#312840"/>
<path id="Vector_4" d="M0.950003 4.67627C0.372246 5.81639 0.0410156 7.10295 0.0410156 8.47421C0.0410156 9.84547 0.372246 11.132 0.950003 12.2722C0.950003 12.2798 3.76966 10.0843 3.76966 10.0843C3.60017 9.57581 3.5 9.03658 3.5 8.47412C3.5 7.91167 3.60017 7.37243 3.76966 6.86398L0.950003 4.67627Z" fill="#312840"/>
<path id="Vector_5" d="M8.51512 3.37428C9.76316 3.37428 10.8725 3.80568 11.7584 4.63771L14.1851 2.21103C12.7137 0.839771 10.8032 0 8.51512 0C5.20249 0 2.3444 1.90285 0.950012 4.67624L3.76958 6.86413C4.43977 4.86111 6.31183 3.37428 8.51512 3.37428Z" fill="#312840"/>
</g>
</svg>
