<svg width="17" height="17" viewBox="0 0 17 17" fill="none" xmlns="http://www.w3.org/2000/svg">
<g id="Social Icons" clip-path="url(#clip0_1_383)">
<path id="Vector" d="M8.49571 1.52602C10.7599 1.52602 11.028 1.53595 11.9185 1.57568C12.7461 1.61209 13.1929 1.75112 13.4909 1.86698C13.8848 2.01925 14.1695 2.20462 14.4641 2.49923C14.762 2.79716 14.9441 3.07853 15.0963 3.47245C15.2122 3.77037 15.3512 4.22056 15.3876 5.04481C15.4274 5.93858 15.4373 6.20671 15.4373 8.46761C15.4373 10.7318 15.4274 10.9999 15.3876 11.8904C15.3512 12.718 15.2122 13.1648 15.0963 13.4628C14.9441 13.8567 14.7587 14.1414 14.4641 14.436C14.1662 14.7339 13.8848 14.916 13.4909 15.0682C13.1929 15.1841 12.7428 15.3231 11.9185 15.3595C11.0247 15.3993 10.7566 15.4092 8.49571 15.4092C6.2315 15.4092 5.96337 15.3993 5.07292 15.3595C4.24536 15.3231 3.79847 15.1841 3.50055 15.0682C3.10663 14.916 2.82195 14.7306 2.52734 14.436C2.22942 14.1381 2.04735 13.8567 1.89508 13.4628C1.77922 13.1648 1.64019 12.7147 1.60378 11.8904C1.56406 10.9966 1.55413 10.7285 1.55413 8.46761C1.55413 6.2034 1.56406 5.93527 1.60378 5.04481C1.64019 4.21725 1.77922 3.77037 1.89508 3.47245C2.04735 3.07853 2.23273 2.79385 2.52734 2.49923C2.82526 2.20131 3.10663 2.01925 3.50055 1.86698C3.79847 1.75112 4.24867 1.61209 5.07292 1.57568C5.96337 1.53595 6.2315 1.52602 8.49571 1.52602ZM8.49571 0C6.19509 0 5.9071 0.00993073 5.0034 0.0496537C4.10302 0.0893766 3.484 0.235027 2.94774 0.443573C2.38831 0.662049 1.91494 0.95004 1.44489 1.42341C0.971525 1.89346 0.683533 2.36683 0.465057 2.92295C0.256512 3.46252 0.110861 4.07822 0.0711381 4.97861C0.0314151 5.88562 0.0214844 6.17361 0.0214844 8.47423C0.0214844 10.7748 0.0314151 11.0628 0.0711381 11.9665C0.110861 12.8669 0.256512 13.4859 0.465057 14.0222C0.683533 14.5816 0.971525 15.055 1.44489 15.525C1.91494 15.9951 2.38831 16.2864 2.94443 16.5016C3.484 16.7101 4.09971 16.8558 5.00009 16.8955C5.90379 16.9352 6.19178 16.9451 8.4924 16.9451C10.793 16.9451 11.081 16.9352 11.9847 16.8955C12.8851 16.8558 13.5041 16.7101 14.0404 16.5016C14.5965 16.2864 15.0699 15.9951 15.5399 15.525C16.01 15.055 16.3013 14.5816 16.5164 14.0255C16.725 13.4859 16.8706 12.8702 16.9104 11.9698C16.9501 11.0661 16.96 10.7782 16.96 8.47754C16.96 6.17692 16.9501 5.88893 16.9104 4.98523C16.8706 4.08484 16.725 3.46583 16.5164 2.92957C16.3079 2.36683 16.0199 1.89346 15.5465 1.42341C15.0765 0.953351 14.6031 0.662049 14.047 0.446883C13.5074 0.238338 12.8917 0.0926869 11.9913 0.0529639C11.0843 0.00993074 10.7963 0 8.49571 0Z" fill="#312840"/>
<path id="Vector_2" d="M8.49573 4.12109C6.0925 4.12109 4.14276 6.07083 4.14276 8.47407C4.14276 10.8773 6.0925 12.827 8.49573 12.827C10.899 12.827 12.8487 10.8773 12.8487 8.47407C12.8487 6.07083 10.899 4.12109 8.49573 4.12109ZM8.49573 11.2977C6.93661 11.2977 5.67209 10.0332 5.67209 8.47407C5.67209 6.91494 6.93661 5.65043 8.49573 5.65043C10.0549 5.65043 11.3194 6.91494 11.3194 8.47407C11.3194 10.0332 10.0549 11.2977 8.49573 11.2977Z" fill="#312840"/>
<path id="Vector_3" d="M14.0371 3.94886C14.0371 4.51161 13.5803 4.96511 13.0208 4.96511C12.4581 4.96511 12.0046 4.5083 12.0046 3.94886C12.0046 3.38612 12.4614 2.93262 13.0208 2.93262C13.5803 2.93262 14.0371 3.38943 14.0371 3.94886Z" fill="#312840"/>
</g>
<defs>
<clipPath id="clip0_1_383">
<rect width="16.9485" height="16.9485" fill="white" transform="translate(0.0214844)"/>
</clipPath>
</defs>
</svg>
