<svg width="17" height="17" viewBox="0 0 17 17" fill="none" xmlns="http://www.w3.org/2000/svg">
<g id="Social Icons" clip-path="url(#clip0_1_382)">
<path id="Vector" d="M15.7251 0H1.28252C0.590681 0 0.03125 0.546191 0.03125 1.22148V15.7237C0.03125 16.399 0.590681 16.9485 1.28252 16.9485H15.7251C16.417 16.9485 16.9797 16.399 16.9797 15.727V1.22148C16.9797 0.546191 16.417 0 15.7251 0ZM5.05951 14.4426H2.54373V6.35236H5.05951V14.4426ZM3.80162 5.25005C2.99392 5.25005 2.3418 4.59793 2.3418 3.79354C2.3418 2.98915 2.99392 2.33703 3.80162 2.33703C4.60601 2.33703 5.25813 2.98915 5.25813 3.79354C5.25813 4.59462 4.60601 5.25005 3.80162 5.25005ZM14.4738 14.4426H11.9614V10.51C11.9614 9.57323 11.9448 8.36499 10.6538 8.36499C9.34628 8.36499 9.14766 9.38785 9.14766 10.4438V14.4426H6.6385V6.35236H9.04836V7.45798H9.08146C9.41579 6.82241 10.2367 6.15044 11.4582 6.15044C14.0038 6.15044 14.4738 7.82542 14.4738 10.0036V14.4426Z" fill="#312840"/>
</g>
<defs>
<clipPath id="clip0_1_382">
<rect width="16.9485" height="16.9485" fill="white" transform="translate(0.03125)"/>
</clipPath>
</defs>
</svg>
