<svg width="17" height="17" viewBox="0 0 17 17" fill="none" xmlns="http://www.w3.org/2000/svg">
<g id="Social Icons" clip-path="url(#clip0_1_387)">
<path id="Vector" d="M16.8304 5.08476C16.8304 5.08476 16.6649 3.91624 16.1551 3.40315C15.5096 2.72786 14.788 2.72455 14.457 2.68483C12.0868 2.5127 8.52832 2.5127 8.52832 2.5127H8.5217C8.5217 2.5127 4.96318 2.5127 2.59305 2.68483C2.26202 2.72455 1.54039 2.72786 0.894894 3.40315C0.385116 3.91624 0.222914 5.08476 0.222914 5.08476C0.222914 5.08476 0.0507812 6.45851 0.0507812 7.82895V9.11332C0.0507812 10.4838 0.219604 11.8575 0.219604 11.8575C0.219604 11.8575 0.385116 13.026 0.891583 13.5391C1.53708 14.2144 2.3845 14.1912 2.76187 14.2641C4.11907 14.3932 8.52501 14.4329 8.52501 14.4329C8.52501 14.4329 12.0868 14.4263 14.457 14.2574C14.788 14.2177 15.5096 14.2144 16.1551 13.5391C16.6649 13.026 16.8304 11.8575 16.8304 11.8575C16.8304 11.8575 16.9992 10.4871 16.9992 9.11332V7.82895C16.9992 6.45851 16.8304 5.08476 16.8304 5.08476ZM6.77389 10.6724V5.90901L11.352 8.299L6.77389 10.6724Z" fill="#312840"/>
</g>
<defs>
<clipPath id="clip0_1_387">
<rect width="16.9485" height="16.9485" fill="white" transform="translate(0.0507812)"/>
</clipPath>
</defs>
</svg>
