<svg width="121" height="56" viewBox="0 0 121 56" fill="none" xmlns="http://www.w3.org/2000/svg">
<path id="Vector" d="M106.804 18.2276C109.937 15.12 113.408 16.034 113.408 19.0481C113.408 21.9898 109.851 25.1654 105.561 27.6268C105.145 27.8606 104.653 28.1327 104.156 28.375C103.988 27.6353 103.894 26.8148 103.894 25.9009C103.894 23.3884 104.97 20.0471 106.804 18.2276ZM90.0947 49.9493C85.9334 54.0772 80.615 48.8143 86.8205 42.6587C88.2262 41.2643 90.5318 39.7297 92.9317 38.3311C94.2988 41.698 93.2145 46.8418 90.0947 49.9493ZM63.5885 33.4211C60.3958 33.4211 58.3302 29.6248 58.9687 24.9359C59.5944 20.2469 62.6929 16.4506 65.8813 16.4506C68.834 16.4506 70.8225 19.7112 70.5954 23.9198C70.514 24.5277 70.4411 25.1144 70.3811 25.6798C69.5412 30.0117 66.6013 33.4211 63.5885 33.4211ZM21.4445 31.8609C20.4031 32.8939 19.1303 33.4423 17.8403 33.4423C16.6361 33.4423 15.5947 32.9024 14.7333 32.048C11.7806 29.1189 12.0377 21.9303 15.8304 18.1553C16.9061 17.0883 18.2046 16.4677 19.5417 16.4677C20.7373 16.4677 21.7873 16.9948 22.6487 17.8493C25.43 20.6082 25.5929 27.7458 21.4445 31.8609ZM120.239 33.3955C120.239 33.3955 119.056 31.7546 118.692 31.287C118.444 30.9809 118.135 30.6068 117.321 31.1595C115.525 32.354 113.502 33.4466 111.008 33.4466C109.105 33.4466 107.438 32.9662 106.2 31.9247C106.718 31.6909 107.263 31.4315 107.82 31.1382C110.764 29.5568 113.219 27.5503 114.402 26.377C120.132 20.6932 118.336 12.2165 111.355 12.2165C104.76 12.2165 99.5486 18.5932 99.5486 25.6755C99.5486 26.7426 99.6771 28.2645 100.14 29.8841C99.75 30.0712 97.1401 31.3253 94.0073 33.0385C91.0632 30.8449 86.4691 31.8311 86.4691 31.8311C90.7332 25.8286 97.153 16.4506 97.6972 15.6769C98.0872 15.1243 98.0272 14.5759 97.6501 13.7087C97.1658 12.6672 96.6815 12.4759 96.0173 12.4759H82.6892C82.2521 12.4759 81.9092 12.6757 81.7807 13.1688C81.6607 13.6492 81.3778 15.3241 81.3307 15.898C81.2707 16.4719 81.815 16.8247 82.3807 16.8247H92.036L83.3021 29.2167C83.2421 29.2635 83.1821 29.323 83.1349 29.4038C81.8707 31.219 79.9208 33.7654 77.5808 33.7654C76.128 33.7654 74.3324 32.7324 74.3324 29.357C74.3324 26.0496 75.6781 19.0651 76.6595 13.6237C76.7666 13.037 76.5652 12.4631 75.6181 12.4631H73.2567C72.7125 12.4631 72.4039 12.7904 72.3225 13.2496C72.1811 14.0828 72.0396 14.9032 71.8982 15.6897C70.7283 13.4749 68.8598 12.2208 66.1556 12.2208C63.6485 12.2208 61.2058 13.1475 59.2087 15.1158C54.2203 20.0641 55.1674 28.1284 50.8647 32.3965C49.0091 34.2373 46.9049 33.6761 46.9049 30.0542C46.9049 25.9179 48.4991 21.3097 50.3333 16.9353C50.6505 16.1616 50.3076 15.5154 49.9691 15.0138C49.4848 14.3123 49.2962 13.934 48.422 13.934C47.0635 13.934 44.8907 14.7885 40.5409 14.7885C39.6195 14.7885 38.7324 14.7545 37.9395 14.6949C37.9867 14.0488 37.9995 13.6152 38.0124 13.4536C38.0381 12.8457 37.8238 12.4589 37.1724 12.4589H34.9525C34.1468 12.4589 33.9497 12.833 33.8554 13.4536C33.4783 16.0893 32.7583 25.7733 27.8642 30.6281C27.2985 31.1892 26.9557 31.3678 26.9557 31.3678C28.1728 28.9999 28.8327 25.8923 28.8327 23.431C28.8327 16.5017 24.6972 12.2123 19.5074 12.2123C17.9217 12.2123 16.2461 12.7182 14.6733 13.6874C15.4061 9.46608 16.079 5.5168 16.3147 4.18196C16.5161 3.05541 16.1004 2.46876 15.8047 2.00114C15.3033 1.23169 14.8619 0.891602 14.2019 0.891602H6.54361C6.10649 0.891602 5.7765 1.19768 5.66936 1.67806C5.5408 2.2392 5.26652 3.71859 5.23224 4.39876C5.20652 4.99817 5.62222 5.21923 6.10649 5.21923H11.7077C10.8077 10.6691 9.10637 21.2331 8.58782 23.8816C7.9407 27.257 5.51508 31.3933 1.43953 32.8599C0.929547 33.047 0.719555 33.5061 0.908119 34.046C1.09668 34.5859 1.79523 35.993 2.00522 36.3543C2.2195 36.7284 2.69091 36.975 3.14089 36.8219C5.25795 36.0822 7.19502 34.8877 8.72924 33.3743C9.10637 33.0002 9.47493 32.5751 9.82634 32.1202C11.6563 36.2013 15.3804 37.6892 19.1988 37.6892C23.5101 37.6892 28.1685 36.2013 31.4298 32.9534C35.2482 29.1785 36.8424 22.9208 37.5153 18.4869C38.4624 18.6145 39.538 18.7207 40.5623 18.7207C43.185 18.7207 45.3835 18.1681 45.3835 18.1681C45.3835 18.1681 42.7393 25.1314 42.7393 30.2667C42.7393 36.0567 45.5292 37.6977 48.6234 37.6977C51.8033 37.6977 54.036 35.3298 55.6303 32.4008C56.046 33.3148 56.6588 34.4073 57.4988 35.2363C58.9387 36.6646 60.7258 37.6977 63.3014 37.6977C66.2456 37.6977 68.774 36.01 70.5697 33.4211C70.8868 34.5093 71.3839 35.4276 72.0568 36.095C72.9653 36.9962 74.6324 37.7019 76.7237 37.7019C80.315 37.7019 82.3978 35.028 87.9862 35.028C88.6933 35.028 89.3318 35.1343 89.9104 35.3341C87.3476 36.8815 84.9134 38.5479 83.4221 40.023C78.8151 44.593 78.6008 50.6083 81.6264 53.6096C85.2906 57.2442 90.5146 55.4248 93.7759 52.1897C97.5944 48.4019 98.7043 41.2431 96.493 36.3416C99.1629 34.9472 101.396 33.9142 101.927 33.6676C103.594 35.9292 106.358 37.7019 110.918 37.7019C114.179 37.7019 117.466 36.5541 120.029 34.6326C120.441 34.3605 120.522 33.7952 120.239 33.3955Z" fill="white"/>
</svg>
