<svg width="82" height="35" viewBox="0 0 82 35" fill="none" xmlns="http://www.w3.org/2000/svg">
<g id="Company logo" clip-path="url(#clip0_38_1416)">
<path id="Vector" d="M34.9519 18.2883C34.9519 22.065 31.9345 24.848 28.2315 24.848C24.5284 24.848 21.511 22.065 21.511 18.2883C21.511 14.4849 24.5284 11.7285 28.2315 11.7285C31.9345 11.7285 34.9519 14.4849 34.9519 18.2883ZM32.01 18.2883C32.01 15.9282 30.2612 14.3134 28.2315 14.3134C26.2017 14.3134 24.4529 15.9282 24.4529 18.2883C24.4529 20.6247 26.2017 22.2632 28.2315 22.2632C30.2612 22.2632 32.01 20.6217 32.01 18.2883Z" fill="white"/>
<path id="Vector_2" d="M49.4502 18.2883C49.4502 22.065 46.4328 24.848 42.7298 24.848C39.0267 24.848 36.0093 22.065 36.0093 18.2883C36.0093 14.4879 39.0267 11.7285 42.7298 11.7285C46.4328 11.7285 49.4502 14.4849 49.4502 18.2883ZM46.5083 18.2883C46.5083 15.9282 44.7595 14.3134 42.7298 14.3134C40.7 14.3134 38.9512 15.9282 38.9512 18.2883C38.9512 20.6247 40.7 22.2632 42.7298 22.2632C44.7595 22.2632 46.5083 20.6217 46.5083 18.2883Z" fill="white"/>
<path id="Vector_3" d="M63.3444 12.1248V23.9016C63.3444 28.746 60.4266 30.7246 56.9773 30.7246C53.7303 30.7246 51.7761 28.5982 51.0391 26.8591L53.6004 25.8151C54.0565 26.8828 55.1741 28.1427 56.9743 28.1427C59.1822 28.1427 60.5505 26.8089 60.5505 24.2979V23.3545H60.4478C59.7893 24.1501 58.5207 24.8451 56.9199 24.8451C53.5702 24.8451 50.5015 21.9881 50.5015 18.3119C50.5015 14.6091 53.5702 11.7285 56.9199 11.7285C58.5177 11.7285 59.7863 12.4235 60.4478 13.1954H60.5505V12.1278H63.3444V12.1248ZM60.7589 18.3119C60.7589 16.0021 59.1852 14.3134 57.1827 14.3134C55.1529 14.3134 53.4524 16.0021 53.4524 18.3119C53.4524 20.5981 55.1529 22.2632 57.1827 22.2632C59.1852 22.2632 60.7589 20.5981 60.7589 18.3119Z" fill="white"/>
<path id="Vector_4" d="M67.9502 5.22217V24.446H65.0808V5.22217H67.9502Z" fill="white"/>
<path id="Vector_5" d="M79.1321 20.4473L81.4155 21.9379C80.6785 23.0055 78.9025 24.8451 75.8338 24.8451C72.028 24.8451 69.1858 21.9645 69.1858 18.2853C69.1858 14.3844 72.0522 11.7256 75.5045 11.7256C78.9811 11.7256 80.6816 14.4347 81.2373 15.8986L81.5424 16.6439L72.5868 20.2757C73.2724 21.5918 74.3387 22.2632 75.8338 22.2632C77.3319 22.2632 78.3709 21.5416 79.1321 20.4473ZM72.1035 18.0872L78.09 15.6532C77.7608 14.8339 76.7701 14.2631 75.6042 14.2631C74.1091 14.2631 72.028 15.5556 72.1035 18.0872Z" fill="white"/>
<path id="Vector_6" d="M10.6495 16.5817V13.7987H20.2273C20.3209 14.2837 20.3693 14.8574 20.3693 15.4785C20.3693 17.5665 19.7863 20.1484 17.9076 21.988C16.0802 23.8512 13.7454 24.845 10.6525 24.845C4.91974 24.845 0.0991211 20.2726 0.0991211 14.6593C0.0991211 9.04594 4.91974 4.47363 10.6525 4.47363C13.824 4.47363 16.0833 5.69213 17.7808 7.28031L15.7752 9.2441C14.5579 8.12616 12.9088 7.25665 10.6495 7.25665C6.46318 7.25665 3.18903 10.5602 3.18903 14.6593C3.18903 18.7584 6.46318 22.0619 10.6495 22.0619C13.3649 22.0619 14.9113 20.9943 15.902 20.0242C16.7055 19.2375 17.2341 18.1137 17.4425 16.5787L10.6495 16.5817Z" fill="white"/>
</g>
<defs>
<clipPath id="clip0_38_1416">
<rect width="81.8773" height="34.0551" fill="white" transform="translate(0 0.0898438)"/>
</clipPath>
</defs>
</svg>
