<svg width="24" height="16" viewBox="0 0 24 16" fill="none" xmlns="http://www.w3.org/2000/svg">
<g id="Left 1">
<path id="Vector" d="M22.6667 9.00675C23.219 9.00675 23.6667 8.55904 23.6667 8.00675C23.6667 7.45447 23.219 7.00675 22.6667 7.00675V9.00675ZM1.33337 7.00675C0.78109 7.00675 0.333375 7.45447 0.333375 8.00675C0.333375 8.55904 0.78109 9.00675 1.33337 9.00675V7.00675ZM5.96276 15.3837C6.35503 15.7725 6.98818 15.7696 7.37696 15.3774C7.76574 14.9851 7.76292 14.3519 7.37065 13.9632L5.96276 15.3837ZM4.31608 12.3437L5.02003 11.6334L5.02003 11.6334L4.31608 12.3437ZM4.31608 3.66983L3.61214 2.95958L3.61214 2.95958L4.31608 3.66983ZM7.37065 2.05034C7.76292 1.66156 7.76574 1.02841 7.37696 0.636143C6.98819 0.24388 6.35503 0.241055 5.96276 0.629833L7.37065 2.05034ZM1.35989 8.42453L0.367919 8.55097L0.367919 8.55097L1.35989 8.42453ZM1.35989 7.58898L0.367919 7.46254L0.367919 7.46254L1.35989 7.58898ZM22.6667 8.00675V7.00675H1.33337V8.00675V9.00675H22.6667V8.00675ZM6.66671 14.6734L7.37065 13.9632L5.02003 11.6334L4.31608 12.3437L3.61214 13.0539L5.96276 15.3837L6.66671 14.6734ZM4.31608 3.66983L5.02003 4.38009L7.37065 2.05034L6.66671 1.34009L5.96276 0.629833L3.61214 2.95958L4.31608 3.66983ZM4.31608 12.3437L5.02003 11.6334C4.06604 10.6879 3.41163 10.0372 2.96883 9.48581C2.5387 8.95022 2.39114 8.6062 2.35187 8.29809L1.35989 8.42453L0.367919 8.55097C0.472967 9.37512 0.866211 10.0617 1.40945 10.7381C1.94002 11.3988 2.69155 12.1415 3.61214 13.0539L4.31608 12.3437ZM4.31608 3.66983L3.61214 2.95958C2.69155 3.87199 1.94002 4.61471 1.40945 5.27537C0.866211 5.9518 0.472967 6.63839 0.367919 7.46254L1.35989 7.58898L2.35187 7.71542C2.39114 7.40731 2.5387 7.06329 2.96883 6.5277C3.41163 5.97632 4.06604 5.3256 5.02003 4.38009L4.31608 3.66983ZM1.35989 8.42453L2.35187 8.29809C2.32721 8.10463 2.32721 7.90888 2.35187 7.71541L1.35989 7.58898L0.367919 7.46254C0.321859 7.82391 0.321859 8.1896 0.367919 8.55097L1.35989 8.42453Z" fill="#FAFAFA"/>
</g>
</svg>
