<svg width="24" height="16" viewBox="0 0 24 16" fill="none" xmlns="http://www.w3.org/2000/svg">
<g id="Left 1">
<path id="Vector" d="M1.33329 9.00675C0.781007 9.00675 0.333292 8.55904 0.333292 8.00675C0.333292 7.45447 0.781007 7.00675 1.33329 7.00675V9.00675ZM22.6666 7.00675C23.2189 7.00675 23.6666 7.45447 23.6666 8.00675C23.6666 8.55904 23.2189 9.00675 22.6666 9.00675V7.00675ZM18.0372 15.3837C17.645 15.7725 17.0118 15.7696 16.623 15.3774C16.2343 14.9851 16.2371 14.3519 16.6293 13.9632L18.0372 15.3837ZM19.6839 12.3437L18.98 11.6334L18.98 11.6334L19.6839 12.3437ZM19.6839 3.66983L20.3879 2.95958L20.3879 2.95958L19.6839 3.66983ZM16.6293 2.05034C16.2371 1.66156 16.2343 1.02841 16.623 0.636143C17.0118 0.24388 17.645 0.241055 18.0372 0.629833L16.6293 2.05034ZM22.6401 8.42453L23.6321 8.55097L23.6321 8.55097L22.6401 8.42453ZM22.6401 7.58898L23.6321 7.46254L23.6321 7.46254L22.6401 7.58898ZM1.33329 8.00675V7.00675H22.6666V8.00675V9.00675H1.33329V8.00675ZM17.3333 14.6734L16.6293 13.9632L18.98 11.6334L19.6839 12.3437L20.3879 13.0539L18.0372 15.3837L17.3333 14.6734ZM19.6839 3.66983L18.98 4.38009L16.6293 2.05034L17.3333 1.34009L18.0372 0.629833L20.3879 2.95958L19.6839 3.66983ZM19.6839 12.3437L18.98 11.6334C19.934 10.6879 20.5884 10.0372 21.0312 9.48581C21.4613 8.95022 21.6089 8.6062 21.6481 8.29809L22.6401 8.42453L23.6321 8.55097C23.527 9.37512 23.1338 10.0617 22.5906 10.7381C22.06 11.3988 21.3085 12.1415 20.3879 13.0539L19.6839 12.3437ZM19.6839 3.66983L20.3879 2.95958C21.3085 3.87199 22.06 4.61471 22.5906 5.27537C23.1338 5.9518 23.527 6.63839 23.6321 7.46254L22.6401 7.58898L21.6481 7.71542C21.6089 7.40731 21.4613 7.06329 21.0312 6.5277C20.5884 5.97632 19.934 5.3256 18.98 4.38009L19.6839 3.66983ZM22.6401 8.42453L21.6481 8.29809C21.6728 8.10463 21.6728 7.90888 21.6481 7.71541L22.6401 7.58898L23.6321 7.46254C23.6781 7.82391 23.6781 8.1896 23.6321 8.55097L22.6401 8.42453Z" fill="#FAFAFA"/>
</g>
</svg>
