<svg width="12" height="18" viewBox="0 0 12 18" fill="none" xmlns="http://www.w3.org/2000/svg">
<g id="Left 1">
<path id="Vector" d="M5.25 1.00684C5.25 0.592623 5.58579 0.256836 6 0.256836C6.41421 0.256836 6.75 0.592623 6.75 1.00684H5.25ZM6.75 17.0068C6.75 17.421 6.41421 17.7568 6 17.7568C5.58579 17.7568 5.25 17.421 5.25 17.0068H6.75ZM0.467309 13.5348C0.175726 13.2406 0.177844 12.7657 0.472041 12.4741C0.766238 12.1826 1.24111 12.1847 1.53269 12.4789L0.467309 13.5348ZM2.74731 14.7698L3.28 14.2418V14.2418L2.74731 14.7698ZM9.25269 14.7698L9.78538 15.2978V15.2978L9.25269 14.7698ZM10.4673 12.4789C10.7589 12.1847 11.2338 12.1826 11.528 12.4741C11.8222 12.7657 11.8243 13.2406 11.5327 13.5348L10.4673 12.4789ZM5.68667 16.9869L5.59184 17.7309L5.59184 17.7309L5.68667 16.9869ZM6.31333 16.9869L6.40816 17.7309L6.40816 17.7309L6.31333 16.9869ZM6 1.00684H6.75L6.75 17.0068H6H5.25L5.25 1.00684H6ZM1 13.0068L1.53269 12.4789L3.28 14.2418L2.74731 14.7698L2.21462 15.2978L0.467309 13.5348L1 13.0068ZM9.25269 14.7698L8.72 14.2418L10.4673 12.4789L11 13.0068L11.5327 13.5348L9.78538 15.2978L9.25269 14.7698ZM2.74731 14.7698L3.28 14.2418C3.98914 14.9573 4.47718 15.4481 4.89071 15.7802C5.2924 16.1028 5.55042 16.2135 5.7815 16.243L5.68667 16.9869L5.59184 17.7309C4.97372 17.6521 4.45878 17.3572 3.95146 16.9498C3.45597 16.5519 2.89892 15.9882 2.21462 15.2978L2.74731 14.7698ZM9.25269 14.7698L9.78538 15.2978C9.10108 15.9882 8.54403 16.5519 8.04854 16.9498C7.54122 17.3572 7.02628 17.6521 6.40816 17.7309L6.31333 16.9869L6.2185 16.243C6.44958 16.2135 6.7076 16.1028 7.10929 15.7802C7.52282 15.4481 8.01086 14.9573 8.72 14.2418L9.25269 14.7698ZM5.68667 16.9869L5.7815 16.243C5.92659 16.2615 6.07341 16.2615 6.2185 16.243L6.31333 16.9869L6.40816 17.7309C6.13714 17.7655 5.86286 17.7655 5.59184 17.7309L5.68667 16.9869Z" fill="#FAFAFA"/>
</g>
</svg>
