<svg width="18" height="12" viewBox="0 0 18 12" fill="none" xmlns="http://www.w3.org/2000/svg">
<g id="Left 1">
<path id="Vector" d="M1 6.75684C0.585787 6.75684 0.25 6.42105 0.25 6.00684C0.25 5.59262 0.585787 5.25684 1 5.25684V6.75684ZM17 5.25684C17.4142 5.25684 17.75 5.59262 17.75 6.00684C17.75 6.42105 17.4142 6.75684 17 6.75684V5.25684ZM13.528 11.5395C13.2338 11.8311 12.7589 11.829 12.4673 11.5348C12.1757 11.2406 12.1778 10.7657 12.472 10.4741L13.528 11.5395ZM14.763 9.25953L14.235 8.72684H14.235L14.763 9.25953ZM14.763 2.75414L15.2909 2.22145H15.2909L14.763 2.75414ZM12.472 1.53953C12.1778 1.24794 12.1757 0.773074 12.4673 0.478877C12.7589 0.18468 13.2338 0.182561 13.528 0.474145L12.472 1.53953ZM16.9801 6.32017L17.7241 6.415L17.7241 6.415L16.9801 6.32017ZM16.9801 5.6935L17.7241 5.59867L17.7241 5.59867L16.9801 5.6935ZM1 6.00684V5.25684L17 5.25684V6.00684V6.75684L1 6.75684V6.00684ZM13 11.0068L12.472 10.4741L14.235 8.72684L14.763 9.25953L15.2909 9.79222L13.528 11.5395L13 11.0068ZM14.763 2.75414L14.235 3.28684L12.472 1.53953L13 1.00684L13.528 0.474145L15.2909 2.22145L14.763 2.75414ZM14.763 9.25953L14.235 8.72684C14.9505 8.0177 15.4413 7.52966 15.7734 7.11613C16.096 6.71444 16.2067 6.45642 16.2361 6.22534L16.9801 6.32017L17.7241 6.415C17.6453 7.03311 17.3504 7.54805 16.9429 8.05538C16.545 8.55087 15.9814 9.10791 15.2909 9.79222L14.763 9.25953ZM14.763 2.75414L15.2909 2.22145C15.9814 2.90576 16.545 3.4628 16.9429 3.9583C17.3504 4.46562 17.6453 4.98056 17.7241 5.59867L16.9801 5.6935L16.2361 5.78833C16.2067 5.55725 16.096 5.29924 15.7734 4.89754C15.4413 4.48401 14.9505 3.99597 14.235 3.28684L14.763 2.75414ZM16.9801 6.32017L16.2361 6.22534C16.2546 6.08024 16.2546 5.93343 16.2361 5.78833L16.9801 5.6935L17.7241 5.59867C17.7586 5.8697 17.7586 6.14397 17.7241 6.415L16.9801 6.32017Z" fill="#312840"/>
</g>
</svg>
