<svg width="24" height="16" viewBox="0 0 24 16" fill="none" xmlns="http://www.w3.org/2000/svg">
<g id="Left 1">
<path id="Vector" d="M22.6673 9.00065C23.2196 9.00065 23.6673 8.55294 23.6673 8.00065C23.6673 7.44837 23.2196 7.00065 22.6673 7.00065V9.00065ZM1.33399 7.00065C0.7817 7.00065 0.333985 7.44837 0.333985 8.00065C0.333985 8.55294 0.7817 9.00065 1.33399 9.00065V7.00065ZM5.96337 15.3776C6.35564 15.7664 6.98879 15.7635 7.37757 15.3713C7.76635 14.979 7.76353 14.3458 7.37126 13.9571L5.96337 15.3776ZM4.31669 12.3376L5.02064 11.6273L5.02064 11.6273L4.31669 12.3376ZM4.31669 3.66373L3.61275 2.95347L3.61275 2.95347L4.31669 3.66373ZM7.37126 2.04424C7.76353 1.65546 7.76635 1.0223 7.37757 0.630039C6.9888 0.237777 6.35564 0.234952 5.96337 0.62373L7.37126 2.04424ZM1.3605 8.41843L0.36853 8.54487L0.36853 8.54487L1.3605 8.41843ZM1.3605 7.58287L0.36853 7.45643L0.36853 7.45643L1.3605 7.58287ZM22.6673 8.00065V7.00065H1.33399V8.00065V9.00065H22.6673V8.00065ZM6.66732 14.6673L7.37126 13.9571L5.02064 11.6273L4.31669 12.3376L3.61275 13.0478L5.96337 15.3776L6.66732 14.6673ZM4.31669 3.66373L5.02064 4.37398L7.37126 2.04424L6.66732 1.33398L5.96337 0.62373L3.61275 2.95347L4.31669 3.66373ZM4.31669 12.3376L5.02064 11.6273C4.06665 10.6818 3.41224 10.0311 2.96944 9.47971C2.53931 8.94412 2.39175 8.60009 2.35248 8.29199L1.3605 8.41843L0.36853 8.54487C0.473578 9.36902 0.866821 10.0556 1.41006 10.732C1.94063 11.3927 2.69216 12.1354 3.61275 13.0478L4.31669 12.3376ZM4.31669 3.66373L3.61275 2.95347C2.69216 3.86588 1.94063 4.60861 1.41006 5.26926C0.866821 5.9457 0.473578 6.63228 0.36853 7.45643L1.3605 7.58287L2.35248 7.70931C2.39175 7.40121 2.53931 7.05719 2.96944 6.52159C3.41224 5.97022 4.06665 5.3195 5.02064 4.37398L4.31669 3.66373ZM1.3605 8.41843L2.35248 8.29199C2.32782 8.09853 2.32782 7.90277 2.35248 7.70931L1.3605 7.58287L0.36853 7.45643C0.322469 7.8178 0.322469 8.1835 0.36853 8.54487L1.3605 8.41843Z" fill="#FAFAFA"/>
</g>
</svg>
