<svg width="24" height="16" viewBox="0 0 24 16" fill="none" xmlns="http://www.w3.org/2000/svg">
<g id="Left 1">
<path id="Vector" d="M1.33366 8.99967C0.781374 8.99967 0.333658 8.55196 0.333658 7.99967C0.333658 7.44739 0.781374 6.99967 1.33366 6.99967V8.99967ZM22.667 6.99967C23.2193 6.99967 23.667 7.44739 23.667 7.99967C23.667 8.55196 23.2193 8.99967 22.667 8.99967V6.99967ZM18.0376 15.3766C17.6453 15.7654 17.0122 15.7625 16.6234 15.3703C16.2346 14.978 16.2375 14.3449 16.6297 13.9561L18.0376 15.3766ZM19.6843 12.3366L18.9803 11.6263L19.6843 12.3366ZM19.6843 3.66275L20.3882 2.9525V2.9525L19.6843 3.66275ZM16.6297 2.04326C16.2374 1.65448 16.2346 1.02133 16.6234 0.629063C17.0122 0.2368 17.6453 0.233975 18.0376 0.622753L16.6297 2.04326ZM22.6405 8.41745L23.6324 8.54389L23.6324 8.54389L22.6405 8.41745ZM22.6405 7.5819L23.6324 7.45546L23.6324 7.45546L22.6405 7.5819ZM1.33366 7.99967V6.99967H22.667V7.99967V8.99967H1.33366V7.99967ZM17.3337 14.6663L16.6297 13.9561L18.9803 11.6263L19.6843 12.3366L20.3882 13.0469L18.0376 15.3766L17.3337 14.6663ZM19.6843 3.66275L18.9803 4.37301L16.6297 2.04326L17.3337 1.33301L18.0376 0.622753L20.3882 2.9525L19.6843 3.66275ZM19.6843 12.3366L18.9803 11.6263C19.9343 10.6808 20.5887 10.0301 21.0315 9.47873C21.4617 8.94314 21.6092 8.59912 21.6485 8.29101L22.6405 8.41745L23.6324 8.54389C23.5274 9.36804 23.1342 10.0546 22.5909 10.7311C22.0603 11.3917 21.3088 12.1344 20.3882 13.0469L19.6843 12.3366ZM19.6843 3.66275L20.3882 2.9525C21.3088 3.86491 22.0603 4.60763 22.5909 5.26829C23.1342 5.94472 23.5274 6.63131 23.6324 7.45546L22.6405 7.5819L21.6485 7.70834C21.6092 7.40023 21.4617 7.05621 21.0315 6.52062C20.5887 5.96924 19.9343 5.31852 18.9803 4.37301L19.6843 3.66275ZM22.6405 8.41745L21.6485 8.29101C21.6732 8.09755 21.6732 7.9018 21.6485 7.70833L22.6405 7.5819L23.6324 7.45546C23.6785 7.81683 23.6785 8.18252 23.6324 8.54389L22.6405 8.41745Z" fill="#FAFAFA"/>
</g>
</svg>
