<svg width="340" height="59" viewBox="0 0 340 59" fill="none" xmlns="http://www.w3.org/2000/svg">
<path d="M336.087 17.837C336.087 16.5637 335.173 15.7148 333.669 15.7148L330.715 15.7678L330.769 22.2407H332.38V20.0123H333.347L334.744 22.2407H336.624L334.959 19.747C335.303 19.5582 335.59 19.2811 335.788 18.945C335.987 18.6089 336.09 18.2261 336.087 17.837ZM333.347 18.6859H332.327V17.0412H333.508C333.721 17.0181 333.935 17.077 334.105 17.2054C334.275 17.3338 334.388 17.522 334.421 17.7309V17.784C334.417 17.9151 334.385 18.0439 334.328 18.1622C334.27 18.2804 334.188 18.3854 334.087 18.4704C333.986 18.5553 333.868 18.6184 333.74 18.6556C333.613 18.6927 333.479 18.703 333.347 18.6859V18.6859ZM95.0711 47.7607C92.3317 47.7607 90.4517 45.6384 90.4517 42.5081V28.236H101.732V18.1553H90.4786L90.3711 6.58912H77.9094L78.0169 45.1079C78.0169 52.9071 83.2809 58.2127 91.0157 58.2127C95.098 58.2127 98.9654 57.6291 102.027 56.2496V46.4343C99.8529 47.4309 97.4646 47.8863 95.0711 47.7607V47.7607ZM124.829 17.5187C113.227 17.5187 104.31 26.4321 104.31 38.2636C104.31 49.989 113.227 58.1596 125.527 58.1596C132.456 58.1596 138.956 55.7191 142.93 50.6787L133.369 46.3812C131.436 48.132 128.481 48.8218 125.849 48.8218C121.552 48.8218 117.255 46.6465 116.664 42.1898H145.186C145.615 40.5973 145.832 38.9564 145.831 37.3086C145.831 25.1588 136.861 17.5187 124.856 17.5187H124.829ZM116.664 34.3905C117.04 29.0849 120.908 26.6443 125.151 26.6443C129.932 26.6443 133.53 29.2971 133.53 33.86V34.3905H116.664ZM66.0655 47.7607C63.326 47.7607 61.446 45.6384 61.446 42.5081V28.236H72.726V18.1553H61.4729L61.3655 6.58912H48.9038L49.0112 45.1079C49.0112 52.9071 54.2752 58.2127 62.01 58.2127C66.0923 58.2127 69.9597 57.6291 73.0215 56.2496V46.4343C70.8488 47.4357 68.4594 47.8913 66.0655 47.7607V47.7607ZM22.2884 17.5187C11.5993 17.5187 0.373047 24.469 0.373047 38.4758C0.373047 50.1482 8.32274 58.3188 18.3673 58.3188C24.1147 58.3188 28.4656 56.0374 31.3124 52.0051L31.6884 57.6291H43.7472V38.9533C43.7472 24.7343 33.1387 17.5187 22.2884 17.5187V17.5187ZM22.2884 47.5484C16.8633 47.5484 12.9422 43.5692 12.9422 37.9453C12.9422 32.3213 16.8096 28.3421 22.2884 28.3421C27.3376 28.3421 31.5273 32.6927 31.5273 37.9453C31.5273 43.1978 27.3376 47.5484 22.2884 47.5484V47.5484ZM333.079 12.7967C329.157 12.8497 326.633 15.3434 326.687 19.0573C326.74 22.7712 329.319 25.2118 333.24 25.1588C337.053 25.1057 339.632 22.6121 339.578 18.8451C339.524 15.0781 336.946 12.7436 333.079 12.7967V12.7967ZM333.24 24.0976C330.178 24.1507 328.083 22.1346 328.083 19.0573C328.083 15.98 330.071 13.9109 333.132 13.8578C336.194 13.8047 338.235 15.8209 338.289 18.9512C338.289 21.9754 336.248 24.0446 333.267 24.0976H333.24ZM272.167 18.2084L263.465 43.1448L254.656 18.2084H241.12L257.342 57.576H269.481L285.703 18.2084H272.167ZM304.449 17.5187C292.847 17.5187 283.93 26.4321 283.93 38.2636C283.93 49.989 292.847 58.1596 305.147 58.1596C312.076 58.1596 318.576 55.7191 322.551 50.6787L312.989 46.3812C311.056 48.132 308.101 48.8218 305.469 48.8218C301.172 48.8218 296.875 46.6465 296.284 42.1898H324.807C325.235 40.5973 325.452 38.9564 325.451 37.3086C325.451 25.1588 316.481 17.5187 304.449 17.5187ZM313.151 34.3905H296.284C296.66 29.0849 300.528 26.6443 304.771 26.6443C309.552 26.6443 313.151 29.2971 313.151 33.86V34.3905ZM231.505 0.912109C227.101 0.912109 223.77 3.8302 223.77 7.91552C223.77 12.0008 227.101 15.025 231.505 15.025C235.91 15.025 239.24 12.0539 239.24 7.91552C239.24 3.77715 235.963 0.912109 231.505 0.912109V0.912109ZM174.944 17.4656C172.426 17.4254 169.939 18.0298 167.728 19.2198C165.516 20.4099 163.653 22.1451 162.321 24.2568L161.892 18.2084H149.86V57.576H162.321V36.9372C162.59 32.003 166.618 28.236 171.023 28.236C175.965 28.236 178.221 31.8969 178.221 36.5128V57.523H190.629V34.6027C190.629 24.6282 184.478 17.4656 174.944 17.4656V17.4656ZM212.974 47.7607C210.234 47.7607 208.354 45.6384 208.354 42.5081V28.236H219.634V18.1553H208.354L208.247 6.58912H195.785L195.893 45.1079C195.893 52.9071 201.157 58.2127 208.891 58.2127C212.974 58.2127 216.841 57.6291 219.903 56.2496V46.4343C217.738 47.4314 215.359 47.8869 212.974 47.7607V47.7607ZM225.221 18.2084V57.576H237.79V18.2084C235.926 19.4281 233.74 20.0786 231.505 20.0786C229.27 20.0786 227.084 19.4281 225.221 18.2084V18.2084Z" fill="white"/>
</svg>
