<svg width="163" height="47" viewBox="0 0 163 47" fill="none" xmlns="http://www.w3.org/2000/svg">
<path id="Vector" d="M9.06264 0.352323C5.74132 1.74258 2.09008 5.67024 0.936896 10.6003C-0.523518 16.8469 5.55395 19.4884 6.05242 18.6222C6.63913 17.6046 4.96341 17.2604 4.61848 14.0194C4.17268 9.83335 6.11877 5.15592 8.56798 3.1036C9.02324 2.7223 9.00159 3.25301 9.00159 4.23466C9.00159 5.99007 8.90459 21.7485 8.90459 25.0373C8.90459 29.4875 8.72079 30.8928 8.39067 32.2814C8.05618 33.6886 7.51845 34.6394 7.92592 35.0057C8.38116 35.4154 10.3249 34.4409 11.4501 32.8704C12.7995 30.9868 13.2718 28.7247 13.3566 26.2682C13.459 23.3068 13.4547 18.6079 13.459 15.9276C13.4631 13.4694 13.5005 6.27122 13.416 1.94395C13.3952 0.882557 10.4516 -0.230999 9.06248 0.351032L9.06264 0.352323ZM127.003 21.1788C126.896 23.4923 126.383 25.3006 125.748 26.5762C124.517 29.0455 121.964 29.8123 120.88 26.2625C120.289 24.3275 120.262 21.0959 120.686 18.3957C121.119 15.645 122.326 13.5675 124.325 13.7549C126.297 13.9401 127.22 16.4809 127.003 21.1788ZM93.7623 35.5325C93.7355 39.3766 93.1305 42.7471 91.8331 43.726C89.993 45.114 87.5198 44.0728 88.0319 41.2678C88.4851 38.7856 90.6281 36.2506 93.7675 33.1532C93.7675 33.1532 93.774 33.8596 93.7623 35.5325ZM93.2597 21.1564C93.1472 23.2636 92.6009 25.3804 92.0049 26.5765C90.7747 29.0458 88.2029 29.8177 87.1371 26.2628C86.4084 23.8339 86.583 20.6903 86.9435 18.7095C87.4114 16.1396 88.5454 13.7554 90.5822 13.7554C92.5624 13.7554 93.5389 15.9278 93.2597 21.1564ZM74.0035 21.1242C73.8828 23.3559 73.4474 25.2214 72.7487 26.5765C71.4847 29.0288 68.9839 29.8065 67.8809 26.2628C67.0858 23.7075 67.3565 20.2233 67.6873 18.3411C68.1781 15.548 69.4072 13.5678 71.326 13.7554C73.2969 13.948 74.2551 16.4809 74.0035 21.1242ZM162.25 23.7309C161.769 23.7309 161.549 24.2275 161.367 25.0635C160.736 27.9702 160.073 28.6265 159.217 28.6265C158.262 28.6265 157.404 27.1872 157.183 24.3061C157.009 22.0406 157.037 17.8697 157.259 13.7208C157.304 12.8683 157.069 12.0249 154.783 11.1943C153.799 10.837 152.369 10.311 151.657 12.0298C149.645 16.8858 148.858 20.7411 148.673 22.3073C148.663 22.3883 148.564 22.4049 148.546 22.2155C148.428 20.9611 148.164 18.6817 148.132 13.8926C148.125 12.9582 147.927 12.1628 146.896 11.5117C146.227 11.0891 144.195 10.3418 143.463 11.2309C142.829 11.958 142.095 13.9147 141.332 16.2341C140.712 18.1193 140.28 19.3946 140.28 19.3946C140.28 19.3946 140.288 14.308 140.296 12.3786C140.299 11.6507 139.8 11.4082 139.649 11.3642C138.971 11.1675 137.636 10.839 137.07 10.839C136.37 10.839 136.199 11.2298 136.199 11.7993C136.199 11.8738 136.089 18.4963 136.089 23.127C136.089 23.3281 136.089 23.5476 136.091 23.7807C135.704 25.909 134.45 28.7981 133.086 28.7981C131.72 28.7981 131.076 27.5903 131.076 22.0698C131.076 18.8492 131.172 17.4489 131.22 15.1196C131.248 13.778 131.301 12.7477 131.298 12.5139C131.288 11.7969 130.048 11.4356 129.471 11.302C128.892 11.1673 128.388 11.1152 127.995 11.1376C127.438 11.169 127.044 11.5342 127.044 12.0365C127.044 12.3058 127.047 12.8179 127.047 12.8179C126.33 11.6912 125.177 10.9071 124.41 10.6798C122.343 10.0661 120.187 10.6099 118.56 12.8859C117.268 14.6943 116.488 16.7426 116.182 19.6853C115.957 21.8367 116.031 24.0183 116.429 25.8633C115.948 27.9452 115.054 28.7981 114.075 28.7981C112.654 28.7981 111.623 26.4785 111.743 22.4669C111.822 19.8283 112.35 17.9766 112.927 15.2977C113.173 14.1557 112.973 13.5578 112.472 12.9848C112.012 12.4593 111.032 12.1908 109.623 12.521C108.619 12.7565 107.185 13.0096 105.872 13.2041C105.872 13.2041 105.951 12.8881 106.016 12.3309C106.358 9.40892 103.182 9.646 102.169 10.5793C101.565 11.1365 101.153 11.7937 100.997 12.9752C100.749 14.8503 102.278 15.7347 102.278 15.7347C101.777 18.0315 100.547 21.0319 99.2768 23.2011C98.5967 24.3633 98.0764 25.2245 97.4048 26.14C97.4023 25.7991 97.4005 25.4583 97.3992 25.119C97.3839 20.2902 97.4481 16.4898 97.4765 15.1201C97.5041 13.7784 97.5579 12.7755 97.5549 12.5417C97.5473 12.0173 97.2411 11.8192 96.6041 11.5685C96.0409 11.3467 95.375 11.1932 94.6843 11.1397C93.8124 11.0717 93.2872 11.5341 93.3008 12.0809C93.3035 12.1842 93.3035 12.8181 93.3035 12.8181C92.5865 11.6914 91.4333 10.9073 90.6661 10.68C88.5996 10.0665 86.4432 10.6104 84.8167 12.8861C83.5242 14.6945 82.6778 17.2322 82.4379 19.6631C82.2145 21.9287 82.2558 23.8541 82.5603 25.4759C82.2317 27.1 81.287 28.7983 80.2187 28.7983C78.8531 28.7983 78.076 27.5905 78.076 22.07C78.076 18.8494 78.1727 17.4491 78.2202 15.1201C78.2478 13.7784 78.3011 12.7479 78.298 12.5144C78.288 11.7974 77.0482 11.436 76.4713 11.3022C75.8677 11.1626 75.3466 11.1113 74.9464 11.1408C74.4185 11.1801 74.0473 11.6529 74.0473 12.0055V12.8181C73.3303 11.6914 72.1771 10.9073 71.4099 10.68C69.3434 10.0665 67.199 10.6191 65.5605 12.8861C64.492 14.3643 63.6269 16.0031 63.1817 19.6309C63.0531 20.6792 62.9963 21.6609 63.0036 22.5785C62.5775 25.1843 60.6957 28.1876 59.1563 28.1876C58.2555 28.1876 57.3976 26.4404 57.3976 22.7167C57.3976 17.7566 57.7046 10.6945 57.7565 10.0138C57.7565 10.0138 59.7014 9.98079 60.0781 9.97641C61.0483 9.96575 61.927 9.9887 63.2191 9.9226C63.8673 9.88955 64.4917 7.56354 63.8228 7.27567C63.5196 7.14538 61.3769 7.03122 60.5274 7.01319C59.8132 6.997 57.8248 6.84985 57.8248 6.84985C57.8248 6.84985 58.0031 2.16232 58.0446 1.66714C58.0799 1.25443 57.5459 1.04194 57.2397 0.913004C56.4951 0.598088 55.829 0.447309 55.0393 0.284524C53.9484 0.0594733 53.4535 0.279607 53.3568 1.20034C53.2113 2.59771 53.1358 6.69061 53.1358 6.69061C52.3353 6.69061 49.6007 6.53412 48.7999 6.53412C48.0558 6.53412 47.2528 9.73388 48.2815 9.7732C49.4649 9.81909 51.5274 9.8587 52.8947 9.89994C52.8947 9.89994 52.8338 17.0784 52.8338 19.2947C52.8338 19.5304 52.8358 19.7575 52.8362 19.9778C52.0837 23.9 49.4333 26.0187 49.4333 26.0187C50.0025 23.4239 48.8397 21.4754 46.7454 19.826C45.9737 19.2181 44.4505 18.0674 42.7461 16.8064C42.7461 16.8064 43.7332 15.8335 44.6086 13.8763C45.2289 12.4899 45.2557 10.9032 43.7332 10.5533C41.2177 9.97483 39.1435 11.8223 38.5248 13.7946C38.0455 15.3225 38.3011 16.4563 39.2402 17.634C39.3087 17.7201 39.383 17.808 39.4598 17.8965C38.8919 18.991 38.1119 20.4646 37.4511 21.6073C35.6173 24.78 34.232 27.2896 33.1851 27.2896C32.3482 27.2896 32.3594 24.7418 32.3594 22.3563C32.3594 20.2998 32.5112 17.208 32.6325 14.0068C32.6727 12.9482 32.1433 12.3451 31.2559 11.7988C30.7168 11.467 29.566 10.8144 28.8996 10.8144C27.9021 10.8144 25.0241 10.9502 22.3048 18.8162C21.9621 19.8076 21.2888 21.6141 21.2888 21.6141L21.3468 12.155C21.3468 11.9332 21.2287 11.7188 20.9582 11.5721C20.5 11.3233 19.2761 10.8144 18.1878 10.8144C17.6693 10.8144 17.4105 11.0556 17.4105 11.5363L17.3156 26.3353C17.3156 27.4597 17.3449 28.7715 17.4561 29.3452C17.5669 29.9197 17.7463 30.387 17.9686 30.665C18.1905 30.9425 18.4472 31.1542 18.8704 31.2416C19.2643 31.3227 21.4214 31.5997 21.5335 30.7753C21.6678 29.7875 21.6729 28.719 22.8056 24.7339C24.5689 18.5297 26.8679 15.5025 27.9487 14.4275C28.1377 14.2395 28.3534 14.2283 28.3431 14.5359C28.2969 15.8961 28.1347 19.295 28.0254 22.1826C27.7327 29.9101 29.1384 31.3424 31.1474 31.3424C32.6843 31.3424 34.8508 29.8153 37.1732 25.9496C38.6211 23.5406 40.0269 21.1785 41.037 19.4761C41.7409 20.1277 42.5308 20.829 43.3201 21.5781C45.1545 23.3191 45.7567 24.9735 45.3571 26.5429C45.0515 27.7426 43.9005 28.9791 41.852 27.7773C41.2549 27.4267 41.0001 27.1558 40.3997 26.7606C40.0772 26.5482 39.5847 26.4847 39.2895 26.7072C38.5225 27.2855 38.0839 28.021 37.8334 28.9316C37.5898 29.8177 38.4772 30.2861 39.3971 30.6958C40.1892 31.0484 41.8916 31.3679 42.9773 31.4043C47.2076 31.5458 50.5964 29.3618 52.9554 23.7282C53.3777 28.5935 55.1749 31.3467 58.2974 31.3467C60.385 31.3467 62.478 28.6483 63.3933 25.9938C63.656 27.0759 64.045 28.0169 64.5473 28.8126C66.9533 32.6247 71.6209 31.8042 73.9655 28.5671C74.6904 27.5668 74.8007 27.2074 74.8007 27.2074C75.1427 30.264 77.6041 31.332 79.0135 31.332C80.592 31.332 82.2218 30.5858 83.364 28.0142C83.4978 28.2933 83.644 28.5598 83.8035 28.8125C86.2095 32.6246 90.8771 31.8041 93.2217 28.567C93.3323 28.4152 93.4282 28.2774 93.512 28.1538L93.5808 30.1615C93.5808 30.1615 92.2433 31.3885 91.4223 32.1412C87.8087 35.4565 85.061 37.9718 84.8589 40.9009C84.5994 44.6357 87.6284 46.0238 89.92 46.2057C92.3537 46.3988 94.4377 45.0545 95.7187 43.1731C96.8453 41.5171 97.5828 37.9529 97.5287 34.4328C97.5072 33.0232 97.4716 31.2308 97.4438 29.3096C98.7139 27.8347 100.145 25.9706 101.462 23.7885C102.898 21.4105 104.437 18.2171 105.225 15.7319C105.225 15.7319 106.562 15.7433 107.989 15.6499C108.445 15.6202 108.576 15.7133 108.492 16.0479C108.39 16.4521 106.689 23.0123 108.242 27.3824C109.304 30.374 111.699 31.3365 113.119 31.3365C114.782 31.3365 116.372 30.0812 117.224 28.2171C117.327 28.4249 117.434 28.626 117.551 28.8117C119.957 32.6238 124.608 31.7984 126.969 28.5662C127.502 27.8369 127.805 27.2065 127.805 27.2065C128.311 30.3699 130.771 31.3472 132.18 31.3472C133.648 31.3472 135.041 30.7455 136.171 28.0712C136.219 29.2487 136.293 30.2115 136.41 30.515C136.482 30.7007 136.899 30.9337 137.202 31.0463C138.545 31.5442 139.915 31.3087 140.421 31.2063C140.772 31.1353 141.046 30.8537 141.083 30.1266C141.182 28.2174 141.121 25.0097 141.7 22.6257C142.672 18.6249 143.578 17.0729 144.008 16.3046C144.249 15.8742 144.52 15.8031 144.53 16.2587C144.55 17.1806 144.596 19.8876 144.972 23.5246C145.249 26.1996 145.618 27.7806 145.902 28.281C146.712 29.7119 147.712 29.7797 148.526 29.7797C149.045 29.7797 150.128 29.6365 150.031 28.7259C149.984 28.2821 150.067 25.539 151.024 21.5974C151.65 19.0234 152.693 16.6976 153.069 15.8474C153.208 15.5338 153.272 15.781 153.27 15.8291C153.191 17.6018 153.013 23.3999 153.735 26.571C154.714 30.8668 157.546 31.3475 158.533 31.3475C160.639 31.3475 162.362 29.745 162.943 25.5284C163.083 24.5137 162.875 23.7301 162.255 23.7301" fill="white"/>
</svg>
