<svg width="246" height="47" viewBox="0 0 246 47" fill="none" xmlns="http://www.w3.org/2000/svg">
<path id="Vector" d="M245.452 21.4169V15.5808H238.051V6.50786L237.802 6.58298L230.85 8.66574L230.713 8.70651V15.5811H219.74V11.7514C219.74 9.96811 220.147 8.60347 220.95 7.69338C221.747 6.79421 222.887 6.33708 224.341 6.33708C225.386 6.33708 226.468 6.57816 227.557 7.05359L227.83 7.17301V1.0268L227.702 0.980576C226.686 0.622962 225.304 0.442871 223.591 0.442871C221.432 0.442871 219.471 0.902891 217.76 1.81458C216.048 2.72756 214.702 4.03089 213.758 5.68798C212.819 7.34315 212.342 9.25481 212.342 11.3703V15.5808H207.188V21.4169H212.342V46.0033H219.74V21.4169H230.713V37.0412C230.713 43.476 233.813 46.7369 239.926 46.7369C240.93 46.7369 241.988 46.6216 243.067 46.3959C244.166 46.1642 244.915 45.9327 245.355 45.6855L245.453 45.629V39.739L245.152 39.9338C244.75 40.1958 244.25 40.4099 243.664 40.5691C243.075 40.7313 242.583 40.8125 242.203 40.8125C240.77 40.8125 239.711 40.4346 239.054 39.6889C238.389 38.9364 238.051 37.6206 238.051 35.7799V21.4169H245.452ZM190.666 40.8134C187.98 40.8134 185.863 39.9415 184.371 38.2241C182.87 36.498 182.109 34.0371 182.109 30.9104C182.109 27.6844 182.87 25.1596 184.372 23.403C185.865 21.658 187.961 20.7723 190.605 20.7723C193.171 20.7723 195.213 21.6182 196.676 23.2878C198.146 24.9661 198.892 27.4706 198.892 30.7341C198.892 34.0377 198.19 36.5754 196.807 38.2729C195.433 39.9576 193.367 40.8134 190.666 40.8134ZM190.994 14.8479C185.871 14.8479 181.802 16.3178 178.9 19.217C176.001 22.1164 174.531 26.1288 174.531 31.1437C174.531 35.907 175.966 39.7383 178.796 42.5296C181.627 45.3218 185.479 46.7362 190.245 46.7362C195.211 46.7362 199.2 45.2457 202.1 42.3065C205 39.3705 206.469 35.3959 206.469 30.4982C206.469 25.6604 205.09 21.8005 202.37 19.0279C199.649 16.254 195.821 14.8479 190.994 14.8479ZM162.602 14.8479C159.117 14.8479 156.234 15.7208 154.032 17.4417C151.817 19.173 150.693 21.4435 150.693 24.1911C150.693 25.6193 150.935 26.888 151.413 27.9641C151.893 29.0436 152.636 29.9942 153.624 30.7919C154.604 31.5832 156.116 32.4121 158.121 33.2554C159.806 33.9343 161.063 34.5086 161.861 34.9613C162.641 35.4049 163.195 35.8508 163.508 36.2852C163.812 36.7102 163.966 37.2919 163.966 38.0097C163.966 40.0536 162.402 41.0481 159.186 41.0481C157.993 41.0481 156.632 40.8041 155.141 40.3232C153.661 39.8496 152.264 39.156 150.999 38.2668L150.692 38.0511V45.0258L150.805 45.0772C151.852 45.5504 153.172 45.9494 154.727 46.2634C156.28 46.5776 157.691 46.7375 158.916 46.7375C162.698 46.7375 165.743 45.8605 167.965 44.1292C170.202 42.3861 171.335 40.0619 171.335 37.2193C171.335 35.1687 170.725 33.4101 169.522 31.9919C168.328 30.5852 166.255 29.2937 163.364 28.1522C161.06 27.2469 159.585 26.4954 158.976 25.9185C158.389 25.3612 158.091 24.5731 158.091 23.5751C158.091 22.6904 158.459 21.9816 159.214 21.4076C159.975 20.8307 161.034 20.5373 162.362 20.5373C163.595 20.5373 164.856 20.728 166.111 21.1017C167.364 21.4753 168.465 21.9758 169.384 22.588L169.686 22.7902V16.174L169.57 16.1252C168.722 15.7692 167.604 15.4646 166.246 15.2174C164.895 14.9718 163.669 14.8479 162.602 14.8479ZM131.405 40.8134C128.72 40.8134 126.602 39.9415 125.111 38.2241C123.609 36.498 122.85 34.0377 122.85 30.9104C122.85 27.6844 123.61 25.1596 125.112 23.403C126.604 21.658 128.701 20.7723 131.346 20.7723C133.91 20.7723 135.952 21.6182 137.416 23.2878C138.886 24.9661 139.632 27.4706 139.632 30.7341C139.632 34.0377 138.93 36.5754 137.546 38.2729C136.172 39.9576 134.107 40.8134 131.405 40.8134ZM131.735 14.8479C126.61 14.8479 122.541 16.3178 119.641 19.217C116.741 22.1164 115.27 26.1288 115.27 31.1437C115.27 35.9089 116.706 39.7383 119.537 42.5296C122.368 45.3218 126.22 46.7362 130.985 46.7362C135.951 46.7362 139.94 45.2457 142.84 42.3065C145.74 39.3705 147.209 35.3959 147.209 30.4982C147.209 25.6604 145.83 21.8005 143.11 19.0279C140.387 16.254 136.56 14.8479 131.735 14.8479ZM104.04 20.8493V15.5808H96.7313V46.0027H104.04V30.4407C104.04 27.7946 104.652 25.6206 105.862 23.9786C107.055 22.3562 108.646 21.5341 110.588 21.5341C111.246 21.5341 111.985 21.6403 112.786 21.8506C113.578 22.0596 114.151 22.2865 114.49 22.5254L114.797 22.7433V15.5288L114.679 15.479C113.998 15.1959 113.035 15.053 111.817 15.053C109.98 15.053 108.337 15.6309 106.929 16.7686C105.693 17.7685 104.8 19.1396 104.117 20.8493H104.04ZM83.6433 14.8479C80.2904 14.8479 77.2998 15.5519 74.756 16.9397C72.207 18.3306 70.2356 20.3164 68.8944 22.8416C67.5591 25.3606 66.8811 28.303 66.8811 31.5845C66.8811 34.4589 67.5384 37.0967 68.8377 39.4215C70.1376 41.7502 71.9775 43.5719 74.3065 44.8355C76.6323 46.0974 79.3203 46.7372 82.2965 46.7372C85.7697 46.7372 88.7351 46.0573 91.1126 44.7164L91.2087 44.6624V38.1063L90.9015 38.3259C89.8245 39.0941 88.621 39.7072 87.326 40.1489C86.0343 40.5903 84.8567 40.8134 83.8239 40.8134C80.9563 40.8134 78.6541 39.9348 76.9831 38.2026C75.3084 36.4681 74.4593 34.0326 74.4593 30.9678C74.4593 27.8838 75.3448 25.3856 77.0899 23.5424C78.8298 21.7045 81.1362 20.7723 83.9446 20.7723C86.3467 20.7723 88.6875 21.5687 90.9022 23.1417L91.2087 23.3597V16.4517L91.1097 16.3971C90.2763 15.9403 89.1396 15.5631 87.7286 15.2771C86.3234 14.9917 84.9491 14.8479 83.6433 14.8479ZM61.8476 15.5811H54.5393V46.0027H61.8476V15.5811ZM58.2682 2.6213C57.0653 2.6213 56.0162 3.02225 55.1543 3.81677C54.2888 4.61354 53.8498 5.61672 53.8498 6.80063C53.8498 7.96592 54.2836 8.95081 55.1409 9.72639C55.9926 10.4997 57.045 10.8917 58.2685 10.8917C59.4917 10.8917 60.5481 10.4997 61.41 9.72767C62.2775 8.95081 62.7174 7.96625 62.7174 6.80063C62.7174 5.65813 62.2893 4.66522 61.4457 3.84887C60.6028 3.03413 59.5334 2.6213 58.2682 2.6213ZM40.0333 13.3366V46.0027H47.4919V3.55257H37.1689L24.0478 35.0833L11.3145 3.55257H0.571289V46.0024H7.58034V13.3333H7.82099L21.267 46.0027H26.5565L39.7927 13.3366H40.0333Z" fill="white"/>
</svg>
