<svg width="108" height="31" viewBox="0 0 108 31" fill="none" xmlns="http://www.w3.org/2000/svg">
<g id="Company logo" clip-path="url(#clip0_38_1421)">
<path id="Vector" fill-rule="evenodd" clip-rule="evenodd" d="M28.7975 6.57861L19.6503 24.4603H11.0585L14.8866 17.0493H14.7149C11.5567 21.149 6.84474 23.8478 0.130859 24.4603V17.152C0.130859 17.152 4.42589 16.8983 6.95081 14.2436H0.130859V6.57875H7.79575V12.883L7.96779 12.8823L11.0999 6.57875H16.8967V12.843L17.0687 12.8428L20.3184 6.57861H28.7975Z" fill="#BCB0D0"/>
<g id="Vector_2">
<path d="M78.6776 22.4868H81.1461V8.31738H78.6776V22.4868Z" fill="white"/>
<path fill-rule="evenodd" clip-rule="evenodd" d="M65.0689 22.3421C65.6054 22.5652 66.151 22.6766 66.7056 22.6766C67.6219 22.6766 68.4417 22.4536 69.1651 22.0076C69.8885 21.5615 70.4491 20.9465 70.847 20.1629C71.2449 19.3732 71.4437 18.478 71.4437 17.4773C71.4437 16.4766 71.2388 15.5814 70.8289 14.7917C70.419 14.002 69.8493 13.3902 69.1199 12.9561C68.3905 12.5161 67.5616 12.299 66.6332 12.3051C66.0425 12.3051 65.4758 12.4196 64.9333 12.6487C64.3907 12.8778 63.9386 13.2033 63.5769 13.6253C63.549 13.6574 63.5219 13.6898 63.4955 13.7226V8.32642H61.0179V22.4868H63.4775L63.4725 21.164C63.5362 21.2419 63.6041 21.3181 63.6764 21.3926C64.0683 21.7966 64.5324 22.113 65.0689 22.3421ZM67.6007 20.0544C67.1969 20.3015 66.7357 20.4252 66.2173 20.4252C65.7049 20.4252 65.2347 20.2985 64.8067 20.0453C64.3787 19.7861 64.0381 19.4335 63.7849 18.9874C63.5377 18.5413 63.4142 18.0349 63.4142 17.4683C63.4081 16.9016 63.5287 16.3952 63.7758 15.9491C64.029 15.497 64.3696 15.1474 64.7976 14.9002C65.2256 14.6471 65.6988 14.5235 66.2173 14.5295C66.7357 14.5235 67.1969 14.644 67.6007 14.8912C68.0107 15.1323 68.3242 15.4789 68.5412 15.9311C68.7642 16.3772 68.8757 16.8896 68.8757 17.4683C68.8757 18.047 68.7642 18.5594 68.5412 19.0055C68.3242 19.4516 68.0107 19.8012 67.6007 20.0544Z" fill="white"/>
<path d="M32.374 9.17641H35.1952L37.719 18.393L40.4037 9.17641H42.7547L45.6664 18.2081L48.0897 9.17641H50.6758L46.8599 22.4868H44.4275L41.4668 13.6636L38.7489 22.4868H36.2893L32.374 9.17641Z" fill="white"/>
<path fill-rule="evenodd" clip-rule="evenodd" d="M54.842 22.7219C53.8593 22.7279 52.9732 22.5109 52.1835 22.0708C51.3999 21.6248 50.782 21.0068 50.3298 20.2172C49.8837 19.4274 49.6606 18.5262 49.6606 17.5135C49.6606 16.5309 49.8898 15.6417 50.3479 14.846C50.806 14.0502 51.427 13.4293 52.2106 12.9832C52.9943 12.5372 53.8684 12.3141 54.8329 12.3141C55.918 12.3141 56.8675 12.5552 57.6813 13.0375C58.5011 13.5198 59.113 14.204 59.5168 15.0901C59.9268 15.9702 60.0745 16.98 59.9599 18.1193H52.2145C52.2361 18.5732 52.3493 18.9862 52.5543 19.3581C52.7833 19.768 53.1028 20.0876 53.5127 20.3166C53.9226 20.5457 54.3808 20.6602 54.8872 20.6602C55.273 20.6542 55.6316 20.5879 55.9632 20.4613C56.2948 20.3287 56.5751 20.1508 56.8042 19.9278C57.0392 19.7047 57.205 19.4516 57.3014 19.1683H59.8876C59.7309 19.8615 59.4174 20.4794 58.9472 21.0219C58.477 21.5584 57.8862 21.9774 57.1749 22.2788C56.4635 22.5802 55.6859 22.7279 54.842 22.7219ZM52.5633 15.6327C52.4188 15.8846 52.3188 16.1559 52.263 16.4465H57.3973C57.36 16.0793 57.2467 15.7448 57.0573 15.4428C56.8404 15.0871 56.545 14.8128 56.1712 14.6199C55.7974 14.421 55.3755 14.3215 54.9053 14.3215C54.4049 14.3215 53.9498 14.4361 53.5399 14.6651C53.13 14.8942 52.8044 15.2167 52.5633 15.6327Z" fill="white"/>
<path d="M73.2612 12.5221C73.2612 11.7143 73.4452 10.9969 73.8129 10.37C74.1806 9.73704 74.696 9.24573 75.3591 8.8961C76.0282 8.54042 76.8089 8.35657 77.7011 8.34451V10.5418C77.2851 10.5478 76.9295 10.6352 76.6341 10.804C76.3448 10.9668 76.1217 11.2049 75.9649 11.5184C75.8206 11.807 75.7427 12.1415 75.7313 12.5221H77.6469V14.6109H75.7298V22.4868H73.2612V14.6109H71.6698V12.5221H73.2612Z" fill="white"/>
<path fill-rule="evenodd" clip-rule="evenodd" d="M87.4215 22.7038C86.4148 22.7038 85.5136 22.4837 84.7178 22.0437C83.9282 21.5976 83.3073 20.9827 82.8551 20.1991C82.409 19.4093 82.186 18.5142 82.186 17.5135C82.186 16.5068 82.409 15.6086 82.8551 14.8188C83.3073 14.0231 83.9282 13.4052 84.7178 12.9652C85.5136 12.5251 86.4148 12.3051 87.4215 12.3051C88.4343 12.3051 89.3386 12.5251 90.1343 12.9652C90.9361 13.4052 91.5599 14.0201 92.006 14.8098C92.4521 15.5995 92.6782 16.5007 92.6842 17.5135C92.6782 18.5142 92.4521 19.4093 92.006 20.1991C91.566 20.9827 90.9451 21.5976 90.1433 22.0437C89.3415 22.4837 88.4343 22.7038 87.4215 22.7038ZM87.4215 20.4342C87.952 20.4342 88.4223 20.3136 88.8322 20.0725C89.2421 19.8253 89.5586 19.4817 89.7816 19.0416C90.0047 18.5955 90.1162 18.0862 90.1162 17.5135C90.1162 16.9348 90.0047 16.4224 89.7816 15.9763C89.5586 15.5302 89.2421 15.1866 88.8322 14.9454C88.4223 14.6983 87.952 14.5747 87.4215 14.5747C86.8971 14.5747 86.4299 14.6983 86.02 14.9454C85.6161 15.1866 85.3026 15.5302 85.0796 15.9763C84.8565 16.4224 84.748 16.9348 84.7541 17.5135C84.7541 18.0862 84.8655 18.5955 85.0886 19.0416C85.3177 19.4817 85.6311 19.8253 86.0291 20.0725C86.4329 20.3136 86.8971 20.4342 87.4215 20.4342Z" fill="white"/>
<path d="M95.3517 12.5221H92.6029L95.5777 22.4868H97.9831L99.9397 16.1223L102.052 22.4868H104.421L107.405 12.5221H104.919L103.226 18.7245L101.356 12.5221H98.9506L97.0891 18.8612L95.3517 12.5221Z" fill="white"/>
</g>
</g>
<defs>
<clipPath id="clip0_38_1421">
<rect width="107.87" height="30.82" fill="white" transform="translate(0.130859 0.0898438)"/>
</clipPath>
</defs>
</svg>
